<svg width="103" height="99" viewBox="0 0 103 99" fill="none" xmlns="http://www.w3.org/2000/svg">
<path d="M24.6261 16V23.3933C25.036 22.9552 25.5336 22.6089 26.0862 22.3768C26.6387 22.1448 27.2339 22.0323 27.8329 22.0466C28.5535 22.0385 29.2675 22.1863 29.926 22.4802C30.5461 22.7516 31.1037 23.1486 31.5637 23.6462C32.0197 24.1504 32.3764 24.7366 32.6152 25.3738C33.1283 26.7505 33.1283 28.2668 32.6152 29.6435C32.3663 30.2913 31.9948 30.8846 31.5212 31.3909C31.0567 31.8859 30.5004 32.2853 29.8834 32.5667C29.2372 32.8552 28.5369 33.0019 27.8296 32.9969C27.2237 33.0212 26.6208 32.9011 26.0702 32.6464C25.5196 32.3918 25.037 32.0099 24.6621 31.5321V32.6751H21V16H24.6261ZM29.1889 27.5513C29.1903 27.2425 29.1309 26.9364 29.014 26.6506C28.897 26.3648 28.725 26.105 28.5076 25.8861C28.2951 25.6704 28.0439 25.4965 27.7673 25.3738C27.4769 25.2433 27.1619 25.1772 26.8436 25.18C26.5339 25.1784 26.2273 25.241 25.9428 25.3639C25.6679 25.4785 25.4193 25.6484 25.2124 25.8632C25.0006 26.0821 24.8307 26.3381 24.7112 26.6186C24.5882 26.9054 24.5248 27.2144 24.5248 27.5267C24.5248 27.839 24.5882 28.148 24.7112 28.4349C24.8254 28.7124 24.9961 28.963 25.2124 29.1706C25.4297 29.3812 25.6825 29.5513 25.9592 29.6731C26.2464 29.799 26.5564 29.8639 26.8698 29.8636C27.1809 29.8615 27.4883 29.7967 27.7739 29.6731C28.0479 29.5553 28.2961 29.3846 28.5044 29.1706C28.7129 28.9528 28.8824 28.7006 29.0055 28.425C29.1285 28.1504 29.1911 27.8524 29.1889 27.5513V27.5513Z" fill="#FFCE1F"/>
<path d="M37.5698 28.1105C37.5698 29.6683 38.2854 30.4462 39.7164 30.444C40.0632 30.4606 40.4078 30.3804 40.7135 30.212C41.0191 30.0435 41.2742 29.7932 41.4515 29.4877H44.8674C44.1785 31.831 42.4551 33.0016 39.6972 32.9994C38.907 33.0099 38.1211 32.8785 37.3753 32.611C36.7062 32.3719 36.0918 31.9954 35.57 31.5047C35.0683 31.0233 34.6726 30.4381 34.409 29.788C34.1275 29.0773 33.9887 28.3159 34.0008 27.5491C33.9885 26.763 34.1205 25.9814 34.3899 25.245C34.6326 24.5872 35.0124 23.9913 35.503 23.499C36.0022 23.0082 36.5966 22.6301 37.2477 22.3893C37.995 22.1189 38.7835 21.9873 39.576 22.001C40.3538 21.9897 41.1273 22.1212 41.8597 22.3893C42.5065 22.6308 43.0926 23.0166 43.5757 23.5186C44.0576 24.0333 44.4243 24.6492 44.6505 25.3233C44.8987 26.0992 45.0162 26.9125 44.9982 27.7286V28.1105H37.5698ZM41.7162 26.012C41.6156 25.5352 41.3618 25.1066 40.9954 24.7946C40.6124 24.4991 40.1466 24.3375 39.6669 24.334C39.1872 24.3305 38.7192 24.4851 38.3321 24.7751C37.9796 25.0943 37.7528 25.534 37.6942 26.012H41.7162Z" fill="#FFCE1F"/>
<path d="M53.6466 22.315H57V32.6738H53.6466V31.525C53.3055 32.0036 52.8657 32.3867 52.3633 32.6426C51.8609 32.8985 51.3104 33.0201 50.7568 32.9973C50.1054 33.0051 49.4597 32.8646 48.8604 32.5847C48.2923 32.3127 47.7803 31.9175 47.3553 31.4227C46.9161 30.9128 46.5734 30.3125 46.3469 29.6566C46.1074 28.9562 45.9899 28.2127 46.0007 27.4647C45.9939 26.748 46.1082 26.0362 46.3378 25.3652C46.5571 24.7196 46.8883 24.1266 47.3131 23.6189C47.7448 23.1008 48.2717 22.6888 48.859 22.4101C49.4463 22.1313 50.0808 21.992 50.7207 22.0014C51.2681 21.9859 51.8123 22.0985 52.3168 22.3319C52.8214 22.5653 53.2747 22.914 53.6466 23.3549V22.315ZM49.4323 27.4647C49.4242 28.0946 49.6402 28.7032 50.0344 29.1614C50.2387 29.3784 50.4815 29.5469 50.7478 29.6566C51.019 29.7785 51.3096 29.8402 51.6027 29.8382C51.8898 29.8389 52.1743 29.7772 52.4395 29.6566C52.6962 29.541 52.9288 29.3691 53.1228 29.1515C53.3145 28.9326 53.4703 28.6791 53.5834 28.4022C53.6997 28.1166 53.7592 27.8072 53.758 27.4944C53.7583 27.1786 53.6988 26.8661 53.5834 26.5767C53.4712 26.2963 53.3154 26.0393 53.1228 25.8175C52.9294 25.5999 52.6966 25.429 52.4395 25.3157C52.175 25.1921 51.8902 25.1292 51.6027 25.1308C51.3092 25.1284 51.0184 25.1912 50.7478 25.3157C50.4903 25.4327 50.2576 25.6069 50.0645 25.8274C49.8756 26.0429 49.7227 26.2932 49.6129 26.5668C49.5019 26.8504 49.4455 27.1561 49.4474 27.4647H49.4323Z" fill="#FFCE1F"/>
<path d="M66.4534 25.0121C65.8493 24.6825 65.1739 24.5034 64.4851 24.4901C64.1999 24.478 63.9174 24.5483 63.6715 24.6924C63.5764 24.7465 63.4977 24.825 63.4435 24.9197C63.3892 25.0144 63.3615 25.1218 63.3631 25.2307C63.3594 25.3298 63.3762 25.4287 63.4123 25.5211C63.4631 25.6109 63.5396 25.6836 63.6321 25.7299C63.7905 25.8121 63.9593 25.8725 64.134 25.9094C64.3538 25.9616 64.6458 26.0301 65.0067 26.1084C65.8476 26.2277 66.6318 26.6 67.2538 27.1754C67.5017 27.4367 67.6952 27.7442 67.823 28.0802C67.9508 28.4162 68.0104 28.774 67.9985 29.1331C68.0089 29.6976 67.8853 30.2565 67.6376 30.7645C67.4007 31.2383 67.0572 31.6514 66.6338 31.9718C66.1692 32.3159 65.6457 32.5735 65.0887 32.732C64.4426 32.9168 63.7729 33.0069 63.1007 32.9996C61.6521 32.9782 60.2359 32.5702 59 31.8184L60.3122 29.2636C61.1476 29.8928 62.1555 30.2546 63.2024 30.3012C63.4922 30.3131 63.7786 30.2356 64.0225 30.0793C64.1212 30.0227 64.2033 29.9414 64.2609 29.8436C64.3184 29.7458 64.3493 29.6347 64.3506 29.5214C64.3534 29.4106 64.3368 29.3002 64.3013 29.1951C64.2568 29.0967 64.1837 29.0137 64.0914 28.9569C63.9454 28.8663 63.786 28.7992 63.619 28.7579C63.4123 28.6959 63.14 28.6339 62.8054 28.5654C61.6835 28.3478 60.8972 28.0118 60.4467 27.5571C60.2182 27.3096 60.0423 27.0187 59.9296 26.702C59.8168 26.3852 59.7696 26.049 59.7906 25.7136C59.7845 25.1804 59.8965 24.6524 60.1187 24.167C60.3308 23.711 60.6477 23.3108 61.0438 22.9989C61.4764 22.6623 61.9696 22.4109 62.4971 22.2583C63.1128 22.0795 63.7518 21.9926 64.3932 22.0005C65.5302 21.9979 66.6564 22.2197 67.7065 22.6531L66.4534 25.0121Z" fill="#FFCE1F"/>
<path d="M72.0423 30.6416L67 22H71.2811L74.0665 27.1307L76.7688 22H81L72.6106 37H68.4858L72.0423 30.6416Z" fill="#FFCE1F"/>
<path d="M40.9843 70.7481C42.544 72.1529 44.3695 73.2316 46.353 73.9205C48.5355 74.676 50.8317 75.0511 53.1413 75.0295C55.4984 75.0493 57.8421 74.6744 60.0751 73.9205C62.083 73.2378 63.9377 72.1694 65.5349 70.7753C67.0498 69.4266 68.2703 67.7803 69.1201 65.9394C70.0094 63.9948 70.4568 61.8777 70.4304 59.74C70.4571 57.6051 70.0194 55.4899 69.1474 53.5406C68.3106 51.6894 67.0884 50.0376 65.5622 48.6955C63.9553 47.3107 62.1037 46.2379 60.1025 45.5322C55.6686 43.9866 50.8415 43.9866 46.4076 45.5322C44.4031 46.2475 42.551 47.3329 40.9479 48.7319C39.4425 50.0637 38.2281 51.6914 37.3809 53.5133C36.5288 55.3692 36.0939 57.3891 36.107 59.4309C36.0799 61.6177 36.5139 63.7858 37.3809 65.794C38.2222 67.6788 39.4497 69.3665 40.9843 70.7481V70.7481ZM47.354 57.113C47.6953 56.3527 48.1664 55.6575 48.7462 55.0586C49.3199 54.4516 50.01 53.9663 50.7754 53.6315C52.3991 52.9652 54.2202 52.9652 55.8439 53.6315C56.6261 53.9441 57.3354 54.4145 57.9277 55.0131C58.5159 55.6156 58.9879 56.3213 59.3199 57.0948C59.676 57.8928 59.859 58.7572 59.8568 59.6309C59.8627 60.5197 59.6797 61.3996 59.3199 62.2125C58.9901 62.9872 58.5179 63.6932 57.9277 64.2941C57.3491 64.8987 56.648 65.3729 55.8712 65.6849C54.2475 66.3511 52.4264 66.3511 50.8027 65.6849C50.0271 65.3707 49.3264 64.8968 48.7462 64.2941C48.1619 63.6885 47.6905 62.9836 47.354 62.2125C46.9928 61.378 46.8129 60.4764 46.8262 59.5673C46.8116 58.7078 46.9823 57.8552 47.3267 57.0675L47.354 57.113Z" fill="#EBEBEB"/>
<path d="M29.3005 48.9773C28.0324 47.6091 26.5003 46.5114 24.7962 45.7503C22.9622 44.9433 20.9765 44.5373 18.9725 44.5595C17.3098 44.5176 15.657 44.8281 14.1231 45.4705C12.5892 46.1129 11.2089 47.0726 10.0732 48.2865V10.0536H92.7516V15.7258C92.7516 22.2101 92.7182 28.6913 92.6515 35.1695H102.952V0H8.79016V0.0636305H0C0 24.6977 0 49.3349 0 73.975H10.0823V70.8026C11.1195 72.1282 12.4576 73.1881 13.9862 73.8947C15.5147 74.6012 17.1896 74.9341 18.8724 74.8658C20.8382 74.8683 22.7812 74.4466 24.5688 73.6296C26.3115 72.8508 27.8826 71.7349 29.1914 70.3463C30.5002 68.9578 31.5207 67.3241 32.1942 65.5394C33.6319 61.7313 33.6319 57.5305 32.1942 53.7223C31.5398 51.9716 30.5577 50.3612 29.3005 48.9773V48.9773ZM22.4395 62.2397C22.0982 63 21.6271 63.6952 21.0472 64.2941C20.4737 64.892 19.7829 65.3655 19.018 65.6849C18.2241 66.0219 17.3692 66.192 16.5066 66.1848C15.6355 66.19 14.7732 66.0103 13.9769 65.6576C13.2014 65.3282 12.4946 64.8564 11.8931 64.2668C11.2925 63.6956 10.8183 63.0051 10.5009 62.2397C10.1615 61.4436 9.98654 60.5871 9.98654 59.7218C9.98654 58.8564 10.1615 58 10.5009 57.2038C10.8329 56.4304 11.3049 55.7247 11.8931 55.1222C12.4837 54.5156 13.1915 54.0351 13.9736 53.7101C14.7557 53.3851 15.5958 53.2222 16.4429 53.2315C17.3263 53.2205 18.2016 53.4004 19.0089 53.7587C19.7737 54.105 20.4702 54.5852 21.0654 55.1767C21.6552 55.7778 22.1219 56.4879 22.4395 57.2675C22.777 58.0669 22.9473 58.9269 22.9399 59.7945C22.9516 60.6361 22.7809 61.4702 22.4395 62.2397Z" fill="#EBEBEB"/>
<path d="M102.879 43.0415H91.5141L85.7541 52.986L79.9849 42.987H68.6196L77.7192 59.6673L69.6934 73.4933L68.9472 74.7477H80.6037L85.7541 65.8849L91.7962 76.3566V88.9282H10.2461C10.2461 87.0466 10.2461 85.1195 10.2461 83.2015H0.0455017V88.9282V98.9818H101.96V73.7023L93.789 59.7218L102.879 43.0415Z" fill="#EBEBEB"/>
</svg>
