<svg width="278" height="99" viewBox="0 0 278 99" fill="none" xmlns="http://www.w3.org/2000/svg">
<path d="M10.0732 27.6066V48.0683C11.2121 46.856 12.5942 45.8975 14.1293 45.2553C15.6644 44.613 17.3179 44.3016 18.9816 44.3414C20.9837 44.3187 22.967 44.728 24.7962 45.5413C26.5191 46.2925 28.068 47.3911 29.346 48.7682C30.6126 50.1639 31.6037 51.7862 32.267 53.5496C33.6922 57.36 33.6922 61.5563 32.267 65.3667C31.5755 67.1594 30.5434 68.8015 29.2277 70.2026C27.9376 71.5728 26.3921 72.6782 24.6779 73.4569C22.8828 74.2555 20.9376 74.6615 18.9725 74.6477C17.2895 74.7148 15.6145 74.3823 14.0849 73.6776C12.5553 72.9729 11.2148 71.9159 10.1733 70.5935V73.7568H0V27.6066H10.0732ZM22.7488 59.5763C22.7527 58.7215 22.5875 57.8743 22.2627 57.0834C21.9379 56.2925 21.4599 55.5735 20.8561 54.9677C20.2656 54.3705 19.568 53.8894 18.7996 53.5496C17.9929 53.1884 17.1176 53.0055 16.2336 53.0133C15.3733 53.0089 14.5213 53.1822 13.7312 53.5223C12.9674 53.8395 12.2768 54.3098 11.702 54.904C11.1137 55.5099 10.6417 56.2185 10.3098 56.9948C9.96804 57.7887 9.7918 58.6439 9.7918 59.5082C9.7918 60.3724 9.96804 61.2276 10.3098 62.0216C10.627 62.7896 11.1012 63.4832 11.702 64.0577C12.3056 64.6405 13.0081 65.1115 13.7767 65.4485C14.5744 65.7971 15.4357 65.9766 16.3064 65.9757C17.1705 65.97 18.0246 65.7907 18.8178 65.4485C19.5791 65.1225 20.2686 64.65 20.847 64.0577C21.4264 63.4549 21.8973 62.7569 22.2393 61.9943C22.581 61.2342 22.7548 60.4095 22.7488 59.5763Z" fill="#EBEBEB"/>
<path d="M46.1438 61.1944C46.1438 65.5334 48.1851 67.6998 52.2677 67.6938C53.2571 67.7401 54.2404 67.5167 55.1124 67.0476C55.9844 66.5784 56.7122 65.8811 57.2179 65.0304H66.9635C64.998 71.5571 60.0812 74.8174 52.2132 74.8113C49.9587 74.8406 47.7165 74.4745 45.5887 73.7296C43.6797 73.0636 41.9271 72.015 40.4383 70.6481C39.007 69.3072 37.8779 67.6773 37.1261 65.8667C36.323 63.8872 35.9269 61.7665 35.9614 59.6309C35.9264 57.4411 36.3029 55.2643 37.0715 53.2133C37.7639 51.381 38.8476 49.7215 40.2473 48.3501C41.6715 46.9831 43.3672 45.9302 45.2247 45.2595C47.3566 44.5061 49.6063 44.1398 51.8674 44.1778C54.0864 44.1464 56.2931 44.5128 58.3826 45.2595C60.2278 45.9321 61.9001 47.0065 63.2782 48.4046C64.653 49.8385 65.6993 51.5537 66.3447 53.4315C67.0527 55.5924 67.388 57.8577 67.3366 60.1308V61.1944H46.1438ZM57.9732 55.3495C57.686 54.0215 56.962 52.8279 55.9167 51.9589C54.8241 51.1356 53.4951 50.6857 52.1266 50.6759C50.7581 50.6661 49.4228 51.0968 48.3185 51.9043C47.3128 52.7935 46.6658 54.0182 46.4986 55.3495H57.9732Z" fill="#EBEBEB"/>
<path d="M93.1793 45.2322H103.316V73.7569H93.1793V70.5935C92.1481 71.9115 90.8186 72.9662 89.3 73.671C87.7814 74.3758 86.117 74.7105 84.4437 74.6477C82.4747 74.6692 80.5226 74.2823 78.711 73.5114C76.9937 72.7627 75.446 71.6742 74.1612 70.3117C72.8336 68.9076 71.7976 67.2548 71.1129 65.4485C70.3889 63.5198 70.0339 61.4724 70.0664 59.4127C70.0459 57.4393 70.3914 55.4791 71.0856 53.6314C71.7485 51.8535 72.7496 50.2206 74.0338 48.8228C75.3388 47.3961 76.9313 46.2616 78.7067 45.4939C80.4821 44.7262 82.4001 44.3427 84.3345 44.3687C85.9893 44.3258 87.6342 44.6361 89.1595 45.2787C90.6847 45.9214 92.0551 46.8817 93.1793 48.0956V45.2322ZM80.4399 59.4127C80.4155 61.1473 81.0682 62.8232 82.2598 64.085C82.8775 64.6824 83.6116 65.1466 84.4164 65.4485C85.2363 65.7841 86.1147 65.954 87.0007 65.9485C87.8687 65.9504 88.7285 65.7805 89.5304 65.4485C90.3064 65.1301 91.0092 64.6568 91.596 64.0578C92.1753 63.455 92.6462 62.7569 92.9882 61.9943C93.3396 61.2079 93.5195 60.3558 93.516 59.4945C93.5168 58.6248 93.3371 57.7643 92.9882 56.9675C92.649 56.1952 92.1779 55.4878 91.596 54.8768C91.0111 54.2778 90.3076 53.8072 89.5304 53.4951C88.7307 53.1548 87.8698 52.9815 87.0007 52.986C86.1136 52.9792 85.2345 53.1524 84.4164 53.4951C83.6379 53.8173 82.9346 54.297 82.3508 54.9041C81.7798 55.4976 81.3178 56.1868 80.9859 56.9402C80.6502 57.7211 80.4798 58.5629 80.4854 59.4127H80.4399Z" fill="#EBEBEB"/>
<path d="M127.139 52.577C125.463 51.6587 123.59 51.1597 121.679 51.1226C120.888 51.0891 120.104 51.2848 119.422 51.6862C119.159 51.8371 118.94 52.0558 118.79 52.3196C118.639 52.5833 118.563 52.8825 118.567 53.186C118.557 53.4622 118.603 53.7375 118.703 53.9951C118.844 54.2451 119.057 54.4477 119.313 54.5768C119.752 54.8058 120.221 54.974 120.705 55.0768C121.315 55.2222 122.125 55.4131 123.126 55.6313C125.459 55.9636 127.634 57.0008 129.359 58.6037C130.047 59.3316 130.583 60.1883 130.938 61.1244C131.292 62.0605 131.458 63.0575 131.425 64.0578C131.453 65.6303 131.111 67.1875 130.424 68.6028C129.766 69.9226 128.814 71.0735 127.639 71.9661C126.35 72.9249 124.898 73.6425 123.353 74.0841C121.561 74.5988 119.704 74.8499 117.839 74.8295C113.821 74.7698 109.893 73.6334 106.465 71.5389L110.104 64.4214C112.422 66.1742 115.217 67.1823 118.121 67.312C118.925 67.3451 119.72 67.1292 120.396 66.6939C120.67 66.536 120.898 66.3097 121.057 66.0371C121.217 65.7646 121.302 65.4552 121.306 65.1395C121.314 64.8308 121.268 64.5232 121.169 64.2305C121.046 63.9563 120.843 63.7252 120.587 63.5669C120.182 63.3146 119.74 63.1274 119.277 63.0124C118.703 62.8397 117.948 62.667 117.02 62.4761C113.908 61.8701 111.727 60.9338 110.477 59.6673C109.844 58.9776 109.356 58.1673 109.043 57.2848C108.73 56.4022 108.599 55.4657 108.658 54.5314C108.641 53.0458 108.951 51.5747 109.568 50.2227C110.156 48.9521 111.035 47.8374 112.134 46.9684C113.334 46.0305 114.702 45.3302 116.165 44.905C117.873 44.4068 119.645 44.1648 121.424 44.1869C124.578 44.1797 127.702 44.7976 130.615 46.0049L127.139 52.577Z" fill="#EBEBEB"/>
<path d="M144.947 69.8663L131.143 45.2322H142.863L150.488 59.8581L157.886 45.2322H169.47L146.503 87.9919H135.21L144.947 69.8663Z" fill="#EBEBEB"/>
<path d="M216.005 70.7481C217.565 72.1529 219.39 73.2316 221.374 73.9205C223.556 74.676 225.852 75.0511 228.162 75.0295C230.519 75.0493 232.863 74.6744 235.096 73.9205C237.103 73.2378 238.958 72.1694 240.555 70.7753C242.07 69.4265 243.291 67.7803 244.141 65.9394C245.03 63.9948 245.477 61.8777 245.451 59.74C245.478 57.6051 245.04 55.4899 244.168 53.5406C243.331 51.6894 242.109 50.0376 240.583 48.6955C238.976 47.3107 237.124 46.2379 235.123 45.5322C230.689 43.9866 225.862 43.9866 221.428 45.5322C219.424 46.2475 217.571 47.3329 215.968 48.7319C214.463 50.0637 213.249 51.6914 212.401 53.5133C211.549 55.3692 211.114 57.3891 211.127 59.4309C211.1 61.6177 211.534 63.7858 212.401 65.794C213.243 67.6788 214.47 69.3665 216.005 70.7481ZM222.375 57.113C222.716 56.3527 223.187 55.6575 223.767 55.0586C224.34 54.4516 225.03 53.9663 225.796 53.6315C227.42 52.9652 229.241 52.9652 230.864 53.6315C231.647 53.9441 232.356 54.4145 232.948 55.0131C233.536 55.6156 234.008 56.3213 234.34 57.0948C234.697 57.8928 234.879 58.7572 234.877 59.6309C234.883 60.5197 234.7 61.3996 234.34 62.2125C234.011 62.9872 233.538 63.6932 232.948 64.2941C232.37 64.8987 231.669 65.3729 230.892 65.6849C229.268 66.3511 227.447 66.3511 225.823 65.6849C225.048 65.3707 224.347 64.8968 223.767 64.2941C223.182 63.6885 222.711 62.9836 222.375 62.2125C222.013 61.378 221.833 60.4764 221.847 59.5673C221.832 58.7078 222.003 57.8552 222.347 57.0675L222.375 57.113Z" fill="#EBEBEB"/>
<path d="M204.321 48.9773C203.053 47.6091 201.521 46.5114 199.817 45.7503C197.983 44.9433 195.997 44.5373 193.993 44.5595C192.33 44.5176 190.678 44.8281 189.144 45.4705C187.61 46.1129 186.229 47.0726 185.094 48.2865V10.0536H267.772V15.7258C267.772 22.2101 267.739 28.6913 267.672 35.1695H277.973V0H183.811V0.0636305H175.021C175.021 24.6977 175.021 49.3349 175.021 73.975H185.103V70.8026C186.14 72.1282 187.478 73.1881 189.007 73.8947C190.535 74.6012 192.21 74.9341 193.893 74.8658C195.859 74.8683 197.802 74.4466 199.589 73.6296C201.332 72.8508 202.903 71.7349 204.212 70.3463C205.521 68.9578 206.541 67.3241 207.215 65.5394C208.652 61.7313 208.652 57.5305 207.215 53.7223C206.56 51.9716 205.578 50.3612 204.321 48.9773ZM197.46 62.2397C197.119 63 196.648 63.6952 196.068 64.2941C195.494 64.892 194.803 65.3655 194.039 65.6849C193.245 66.0219 192.39 66.192 191.527 66.1848C190.656 66.19 189.794 66.0103 188.997 65.6576C188.222 65.3282 187.515 64.8564 186.914 64.2668C186.313 63.6956 185.839 63.0051 185.521 62.2397C185.182 61.4436 185.007 60.5871 185.007 59.7218C185.007 58.8564 185.182 58 185.521 57.2038C185.853 56.4304 186.325 55.7247 186.914 55.1222C187.504 54.5156 188.212 54.0351 188.994 53.7101C189.776 53.3851 190.616 53.2222 191.463 53.2315C192.347 53.2205 193.222 53.4004 194.029 53.7587C194.794 54.105 195.491 54.5852 196.086 55.1767C196.676 55.7778 197.142 56.4879 197.46 57.2675C197.798 58.0669 197.968 58.9269 197.96 59.7945C197.972 60.6361 197.801 61.4702 197.46 62.2397Z" fill="#EBEBEB"/>
<path d="M277.9 43.0415H266.535L260.775 52.986L255.005 42.987H243.64L252.74 59.6673L244.714 73.4933L243.968 74.7477H255.624L260.775 65.8849L266.817 76.3566V88.9282H185.267C185.267 87.0466 185.267 85.1195 185.267 83.2015H175.066V88.9282V98.9818H276.981V73.7023L268.809 59.7218L277.9 43.0415Z" fill="#EBEBEB"/>
<path d="M3.90332 85.0469L6.125 91.9717L8.33984 85.0469H11.498V95H9.0918V92.6758L9.32422 87.918L6.91797 95H5.33203L2.91895 87.9111L3.15137 92.6758V95H0.751953V85.0469H3.90332ZM17.0898 95C17.0078 94.8496 16.9349 94.6286 16.8711 94.3369C16.4473 94.8701 15.8548 95.1367 15.0938 95.1367C14.3965 95.1367 13.804 94.9271 13.3164 94.5078C12.8288 94.084 12.585 93.5531 12.585 92.915C12.585 92.113 12.8812 91.5068 13.4736 91.0967C14.0661 90.6865 14.9274 90.4814 16.0576 90.4814H16.7686V90.0918C16.7686 89.4128 16.4746 89.0732 15.8867 89.0732C15.3398 89.0732 15.0664 89.3421 15.0664 89.8799H12.7627C12.7627 89.1644 13.0658 88.5833 13.6719 88.1367C14.2826 87.6901 15.0596 87.4668 16.0029 87.4668C16.9463 87.4668 17.6914 87.6969 18.2383 88.1572C18.7852 88.6175 19.0654 89.2487 19.0791 90.0508V93.3252C19.0882 94.0042 19.193 94.5238 19.3936 94.8838V95H17.0898ZM15.6475 93.4961C15.9346 93.4961 16.1715 93.4346 16.3584 93.3115C16.5498 93.1885 16.6865 93.0495 16.7686 92.8945V91.7119H16.0986C15.2965 91.7119 14.8955 92.0719 14.8955 92.792C14.8955 93.0016 14.9661 93.1725 15.1074 93.3047C15.2487 93.4323 15.4287 93.4961 15.6475 93.4961ZM24.835 89.6885L24.0762 89.6338C23.3516 89.6338 22.8867 89.8617 22.6816 90.3174V95H20.3779V87.6035H22.5381L22.6133 88.5537C23.0007 87.8291 23.5407 87.4668 24.2334 87.4668C24.4795 87.4668 24.6937 87.4941 24.876 87.5488L24.835 89.6885ZM28.6357 92.2451L27.9863 92.8945V95H25.6826V84.4932H27.9863V90.0713L28.2188 89.7637L29.9551 87.6035H32.7168L30.126 90.6455L32.8877 95H30.249L28.6357 92.2451ZM36.7637 95.1367C35.6289 95.1367 34.7106 94.7995 34.0088 94.125C33.307 93.446 32.9561 92.5641 32.9561 91.4795V91.2881C32.9561 90.5316 33.0951 89.8639 33.373 89.2852C33.6556 88.7064 34.0658 88.2598 34.6035 87.9453C35.1413 87.6263 35.7793 87.4668 36.5176 87.4668C37.5566 87.4668 38.377 87.7904 38.9785 88.4375C39.5801 89.0801 39.8809 89.9779 39.8809 91.1309V92.0264H35.3008C35.3828 92.4411 35.5628 92.7669 35.8408 93.0039C36.1188 93.2409 36.4788 93.3594 36.9209 93.3594C37.6501 93.3594 38.2197 93.1042 38.6299 92.5938L39.6826 93.8379C39.3955 94.2344 38.9876 94.5511 38.459 94.7881C37.9349 95.0205 37.3698 95.1367 36.7637 95.1367ZM36.5039 89.2441C35.8294 89.2441 35.4284 89.6908 35.3008 90.584H37.625V90.4062C37.6341 90.0371 37.5407 89.7523 37.3447 89.5518C37.1488 89.3467 36.8685 89.2441 36.5039 89.2441ZM43.4971 85.7646V87.6035H44.7139V89.2031H43.4971V92.5869C43.4971 92.8649 43.5472 93.0586 43.6475 93.168C43.7477 93.2773 43.946 93.332 44.2422 93.332C44.4701 93.332 44.6615 93.3184 44.8164 93.291V94.9385C44.4017 95.0706 43.9688 95.1367 43.5176 95.1367C42.7246 95.1367 42.139 94.9499 41.7607 94.5762C41.3825 94.2025 41.1934 93.6351 41.1934 92.874V89.2031H40.25V87.6035H41.1934V85.7646H43.4971ZM48.0566 95H45.7461V87.6035H48.0566V95ZM45.6094 85.6963C45.6094 85.3682 45.7279 85.0993 45.9648 84.8896C46.2018 84.68 46.5094 84.5752 46.8877 84.5752C47.266 84.5752 47.5736 84.68 47.8105 84.8896C48.0475 85.0993 48.166 85.3682 48.166 85.6963C48.166 86.0244 48.0475 86.2933 47.8105 86.5029C47.5736 86.7126 47.266 86.8174 46.8877 86.8174C46.5094 86.8174 46.2018 86.7126 45.9648 86.5029C45.7279 86.2933 45.6094 86.0244 45.6094 85.6963ZM51.5977 87.6035L51.6729 88.4717C52.1833 87.8018 52.8874 87.4668 53.7852 87.4668C54.5553 87.4668 55.1296 87.6969 55.5078 88.1572C55.8906 88.6175 56.0889 89.3102 56.1025 90.2354V95H53.792V90.3311C53.792 89.9574 53.7168 89.6839 53.5664 89.5107C53.416 89.333 53.1426 89.2441 52.7461 89.2441C52.2949 89.2441 51.96 89.4219 51.7412 89.7773V95H49.4375V87.6035H51.5977ZM57.1143 91.2471C57.1143 90.4997 57.2373 89.8389 57.4834 89.2646C57.7295 88.6904 58.0827 88.2484 58.543 87.9385C59.0033 87.624 59.5387 87.4668 60.1494 87.4668C60.9196 87.4668 61.5212 87.7266 61.9541 88.2461L62.0361 87.6035H64.1279V94.7197C64.1279 95.3714 63.9753 95.9365 63.6699 96.415C63.3691 96.8981 62.9316 97.2673 62.3574 97.5225C61.7832 97.7822 61.1178 97.9121 60.3613 97.9121C59.819 97.9121 59.2926 97.8096 58.7822 97.6045C58.2764 97.3994 57.889 97.1328 57.6201 96.8047L58.584 95.4512C59.0124 95.957 59.5775 96.21 60.2793 96.21C61.3001 96.21 61.8105 95.6859 61.8105 94.6377V94.4053C61.3685 94.8929 60.8102 95.1367 60.1357 95.1367C59.2334 95.1367 58.5042 94.7926 57.9482 94.1045C57.3923 93.4118 57.1143 92.4867 57.1143 91.3291V91.2471ZM59.4248 91.3906C59.4248 91.9967 59.5387 92.4775 59.7666 92.833C59.9945 93.1839 60.3135 93.3594 60.7236 93.3594C61.2204 93.3594 61.5827 93.193 61.8105 92.8604V89.75C61.5872 89.4128 61.2295 89.2441 60.7373 89.2441C60.3271 89.2441 60.0059 89.4287 59.7734 89.7979C59.541 90.1624 59.4248 90.6934 59.4248 91.3906ZM72.5156 95V85.0469H75.7217C76.6012 85.0469 77.3919 85.2474 78.0938 85.6484C78.7956 86.0449 79.3424 86.6077 79.7344 87.3369C80.1309 88.0615 80.3314 88.875 80.3359 89.7773V90.2354C80.3359 91.1468 80.1423 91.9648 79.7549 92.6895C79.3721 93.4095 78.8298 93.9746 78.1279 94.3848C77.4307 94.7904 76.6514 94.9954 75.79 95H72.5156ZM74.915 86.8994V93.1543H75.749C76.4372 93.1543 76.9658 92.9105 77.335 92.4229C77.7041 91.9307 77.8887 91.2015 77.8887 90.2354V89.8047C77.8887 88.8431 77.7041 88.1185 77.335 87.6309C76.9658 87.1432 76.4281 86.8994 75.7217 86.8994H74.915ZM83.8906 95H81.5801V87.6035H83.8906V95ZM81.4434 85.6963C81.4434 85.3682 81.5618 85.0993 81.7988 84.8896C82.0358 84.68 82.3434 84.5752 82.7217 84.5752C83.0999 84.5752 83.4076 84.68 83.6445 84.8896C83.8815 85.0993 84 85.3682 84 85.6963C84 86.0244 83.8815 86.2933 83.6445 86.5029C83.4076 86.7126 83.0999 86.8174 82.7217 86.8174C82.3434 86.8174 82.0358 86.7126 81.7988 86.5029C81.5618 86.2933 81.4434 86.0244 81.4434 85.6963ZM85.0459 91.2471C85.0459 90.4997 85.1689 89.8389 85.415 89.2646C85.6611 88.6904 86.0143 88.2484 86.4746 87.9385C86.9349 87.624 87.4704 87.4668 88.0811 87.4668C88.8512 87.4668 89.4528 87.7266 89.8857 88.2461L89.9678 87.6035H92.0596V94.7197C92.0596 95.3714 91.9069 95.9365 91.6016 96.415C91.3008 96.8981 90.8633 97.2673 90.2891 97.5225C89.7148 97.7822 89.0495 97.9121 88.293 97.9121C87.7507 97.9121 87.2243 97.8096 86.7139 97.6045C86.208 97.3994 85.8206 97.1328 85.5518 96.8047L86.5156 95.4512C86.944 95.957 87.5091 96.21 88.2109 96.21C89.2318 96.21 89.7422 95.6859 89.7422 94.6377V94.4053C89.3001 94.8929 88.7419 95.1367 88.0674 95.1367C87.165 95.1367 86.4359 94.7926 85.8799 94.1045C85.3239 93.4118 85.0459 92.4867 85.0459 91.3291V91.2471ZM87.3564 91.3906C87.3564 91.9967 87.4704 92.4775 87.6982 92.833C87.9261 93.1839 88.2451 93.3594 88.6553 93.3594C89.152 93.3594 89.5143 93.193 89.7422 92.8604V89.75C89.5189 89.4128 89.1611 89.2441 88.6689 89.2441C88.2588 89.2441 87.9375 89.4287 87.7051 89.7979C87.4727 90.1624 87.3564 90.6934 87.3564 91.3906ZM95.7988 95H93.4883V87.6035H95.7988V95ZM93.3516 85.6963C93.3516 85.3682 93.4701 85.0993 93.707 84.8896C93.944 84.68 94.2516 84.5752 94.6299 84.5752C95.0081 84.5752 95.3158 84.68 95.5527 84.8896C95.7897 85.0993 95.9082 85.3682 95.9082 85.6963C95.9082 86.0244 95.7897 86.2933 95.5527 86.5029C95.3158 86.7126 95.0081 86.8174 94.6299 86.8174C94.2516 86.8174 93.944 86.7126 93.707 86.5029C93.4701 86.2933 93.3516 86.0244 93.3516 85.6963ZM99.9072 85.7646V87.6035H101.124V89.2031H99.9072V92.5869C99.9072 92.8649 99.9574 93.0586 100.058 93.168C100.158 93.2773 100.356 93.332 100.652 93.332C100.88 93.332 101.072 93.3184 101.227 93.291V94.9385C100.812 95.0706 100.379 95.1367 99.9277 95.1367C99.1348 95.1367 98.5492 94.9499 98.1709 94.5762C97.7926 94.2025 97.6035 93.6351 97.6035 92.874V89.2031H96.6602V87.6035H97.6035V85.7646H99.9072ZM106.203 95C106.121 94.8496 106.048 94.6286 105.984 94.3369C105.561 94.8701 104.968 95.1367 104.207 95.1367C103.51 95.1367 102.917 94.9271 102.43 94.5078C101.942 94.084 101.698 93.5531 101.698 92.915C101.698 92.113 101.994 91.5068 102.587 91.0967C103.179 90.6865 104.041 90.4814 105.171 90.4814H105.882V90.0918C105.882 89.4128 105.588 89.0732 105 89.0732C104.453 89.0732 104.18 89.3421 104.18 89.8799H101.876C101.876 89.1644 102.179 88.5833 102.785 88.1367C103.396 87.6901 104.173 87.4668 105.116 87.4668C106.06 87.4668 106.805 87.6969 107.352 88.1572C107.898 88.6175 108.179 89.2487 108.192 90.0508V93.3252C108.201 94.0042 108.306 94.5238 108.507 94.8838V95H106.203ZM104.761 93.4961C105.048 93.4961 105.285 93.4346 105.472 93.3115C105.663 93.1885 105.8 93.0495 105.882 92.8945V91.7119H105.212C104.41 91.7119 104.009 92.0719 104.009 92.792C104.009 93.0016 104.079 93.1725 104.221 93.3047C104.362 93.4323 104.542 93.4961 104.761 93.4961ZM111.904 95H109.594V84.5H111.904V95Z" fill="#FFCE1F"/>
</svg>
