<svg width="12" height="13" viewBox="0 0 12 13" fill="none" xmlns="http://www.w3.org/2000/svg">
<path d="M8.74219 7.33594C8.74219 8.13281 8.51562 8.74219 8.0625 9.16406C7.61458 9.58073 6.97917 9.78906 6.15625 9.78906C5.33854 9.78906 4.68229 9.51562 4.1875 8.96875C3.69792 8.41667 3.45312 7.66667 3.45312 6.71875V5.85938C3.45312 4.94271 3.70052 4.21094 4.19531 3.66406C4.69531 3.11198 5.34896 2.83594 6.15625 2.83594C6.98958 2.83594 7.63021 3.04948 8.07812 3.47656C8.52604 3.90365 8.75 4.50521 8.75 5.28125H7.60938C7.60938 4.76562 7.48438 4.39844 7.23438 4.17969C6.98958 3.95573 6.63021 3.84375 6.15625 3.84375C5.66667 3.84375 5.28125 4.02344 5 4.38281C4.71875 4.74219 4.57812 5.24219 4.57812 5.88281V6.76562C4.57812 7.39062 4.71875 7.88281 5 8.24219C5.28125 8.60156 5.66667 8.78125 6.15625 8.78125C6.63542 8.78125 6.99479 8.67188 7.23438 8.45312C7.47917 8.23438 7.60156 7.86198 7.60156 7.33594H8.74219ZM1.60938 6.30469C1.60938 7.20052 1.81771 8.03125 2.23438 8.79688C2.65104 9.55729 3.21615 10.1536 3.92969 10.5859C4.64844 11.0182 5.42448 11.2344 6.25781 11.2344C7.09115 11.2344 7.86458 11.0182 8.57812 10.5859C9.29167 10.1536 9.85677 9.55729 10.2734 8.79688C10.6901 8.03125 10.8984 7.20052 10.8984 6.30469C10.8984 5.41927 10.6927 4.59896 10.2812 3.84375C9.86979 3.08854 9.30469 2.49479 8.58594 2.0625C7.8724 1.625 7.09635 1.40625 6.25781 1.40625C5.42448 1.40625 4.64844 1.6224 3.92969 2.05469C3.21094 2.48177 2.64323 3.07552 2.22656 3.83594C1.8151 4.59635 1.60938 5.41927 1.60938 6.30469ZM0.710938 6.30469C0.710938 5.2526 0.953125 4.27604 1.4375 3.375C1.92708 2.47396 2.60156 1.76562 3.46094 1.25C4.32552 0.729167 5.25781 0.46875 6.25781 0.46875C7.25781 0.46875 8.1875 0.729167 9.04688 1.25C9.90625 1.76562 10.5781 2.47396 11.0625 3.375C11.5521 4.27604 11.7969 5.2526 11.7969 6.30469C11.7969 7.33073 11.5625 8.29167 11.0938 9.1875C10.625 10.0833 9.95833 10.8047 9.09375 11.3516C8.23438 11.8932 7.28906 12.1641 6.25781 12.1641C5.23177 12.1641 4.28646 11.8958 3.42188 11.3594C2.5625 10.8177 1.89583 10.099 1.42188 9.20312C0.947917 8.30729 0.710938 7.34115 0.710938 6.30469Z" fill="#2E3035"/>
</svg>
