<svg width="60" height="60" viewBox="0 0 60 60" fill="none" xmlns="http://www.w3.org/2000/svg">
<path d="M0 30.1805C0.0034905 45.0296 10.7348 57.6728 25.3101 60V38.9039H17.6994V30.1805H25.3191V23.5399C24.9785 20.3933 26.0467 17.2572 28.2339 14.9823C30.4212 12.7074 33.5009 11.5295 36.6377 11.7679C38.8893 11.8045 41.1351 12.0062 43.3575 12.3716V19.794H39.5656C38.2602 19.622 36.9478 20.0558 35.9981 20.9732C35.0483 21.8907 34.5641 23.1924 34.6818 24.5119V30.1805H42.9945L41.6656 38.9069H34.6818V60C50.4447 57.4935 61.4981 43.0084 59.8344 27.0385C58.1707 11.0687 44.3723 -0.795199 28.4355 0.0416693C12.4987 0.878538 0.00253334 14.1232 0 30.1805Z" fill="#2E3035"/>
</svg>
