<svg width="26" height="26" viewBox="0 0 26 26" fill="none" xmlns="http://www.w3.org/2000/svg">
<path d="M13 8.83438C10.7062 8.83438 8.83437 10.7063 8.83437 13C8.83437 15.2937 10.7062 17.1656 13 17.1656C15.2937 17.1656 17.1656 15.2937 17.1656 13C17.1656 10.7063 15.2937 8.83438 13 8.83438ZM25.4937 13C25.4937 11.275 25.5094 9.56563 25.4125 7.84375C25.3156 5.84375 24.8594 4.06875 23.3969 2.60625C21.9312 1.14062 20.1594 0.6875 18.1594 0.590625C16.4344 0.49375 14.725 0.509375 13.0031 0.509375C11.2781 0.509375 9.56875 0.49375 7.84687 0.590625C5.84687 0.6875 4.07187 1.14375 2.60937 2.60625C1.14375 4.07188 0.690621 5.84375 0.593746 7.84375C0.496871 9.56875 0.512496 11.2781 0.512496 13C0.512496 14.7219 0.496871 16.4344 0.593746 18.1562C0.690621 20.1562 1.14687 21.9312 2.60937 23.3937C4.075 24.8594 5.84687 25.3125 7.84687 25.4094C9.57187 25.5062 11.2812 25.4906 13.0031 25.4906C14.7281 25.4906 16.4375 25.5062 18.1594 25.4094C20.1594 25.3125 21.9344 24.8562 23.3969 23.3937C24.8625 21.9281 25.3156 20.1562 25.4125 18.1562C25.5125 16.4344 25.4937 14.725 25.4937 13ZM13 19.4094C9.45312 19.4094 6.59062 16.5469 6.59062 13C6.59062 9.45312 9.45312 6.59062 13 6.59062C16.5469 6.59062 19.4094 9.45312 19.4094 13C19.4094 16.5469 16.5469 19.4094 13 19.4094ZM19.6719 7.825C18.8437 7.825 18.175 7.15625 18.175 6.32812C18.175 5.5 18.8437 4.83125 19.6719 4.83125C20.5 4.83125 21.1687 5.5 21.1687 6.32812C21.169 6.52477 21.1304 6.71953 21.0553 6.90125C20.9802 7.08297 20.8699 7.24808 20.7309 7.38713C20.5918 7.52617 20.4267 7.63642 20.245 7.71156C20.0633 7.7867 19.8685 7.82525 19.6719 7.825Z" fill="#EBEBEB"/>
</svg>
