<svg width="350" height="150" viewBox="0 0 350 150" fill="none" xmlns="http://www.w3.org/2000/svg">
<path d="M217.562 109.182H212.585L210.821 107.484C216.995 100.314 220.712 91.0063 220.712 80.8805C220.712 58.3019 202.379 40 179.762 40C158.215 40 140.575 56.6038 139 77.7358H151.726C153.301 63.5849 165.145 52.5786 179.762 52.5786C195.449 52.5786 208.112 65.2201 208.112 80.8805C208.112 96.5409 195.449 109.182 179.762 109.182C178.691 109.182 177.683 108.994 176.612 108.868V121.572C177.683 121.698 178.691 121.761 179.762 121.761C189.905 121.761 199.229 118.05 206.411 111.887L208.112 113.648V118.616L239.613 150L249 140.629L217.562 109.182Z" fill="#EBEBEB" fill-opacity="0.6"/>
<path d="M160.86 78C152.742 78 151.22 85.7131 143.001 85.7131C134.783 85.7131 133.261 78 125.143 78C115.201 78 111 87.8397 111 97.4638C111 107.088 119.43 142 129.37 142C133.574 142 134.54 119.667 143 119.667C151.46 119.667 152.426 142 156.63 142C166.571 142 175 107.089 175 97.4638C175 87.8385 170.8 78 160.86 78Z" fill="#EBEBEB" fill-opacity="0.6"/>
</svg>
