<svg width="350" height="150" viewBox="0 0 350 150" fill="none" xmlns="http://www.w3.org/2000/svg">
<path d="M229 61.0824L203.7 40L196.605 48.3565L221.905 69.4389L229 61.0824ZM151.34 48.3565L144.3 40L119 61.0278L126.095 69.3843L151.34 48.3565ZM176.75 73.5353H168.5V106.306L194.625 121.872L198.75 115.154L176.75 102.21V73.5353ZM174 51.6882C146.665 51.6882 124.5 73.6991 124.5 100.844C124.5 127.989 146.61 150 174 150C201.335 150 223.5 127.989 223.5 100.844C223.5 73.6991 201.335 51.6882 174 51.6882ZM174 139.076C152.715 139.076 135.5 121.981 135.5 100.844C135.5 79.7071 152.715 62.6117 174 62.6117C195.285 62.6117 212.5 79.7071 212.5 100.844C212.5 121.981 195.285 139.076 174 139.076Z" fill="#EBEBEB" fill-opacity="0.6"/>
<path d="M245.069 150H230.45V147.1L237.35 139.746C238.297 138.711 238.995 137.808 239.444 137.036C239.903 136.265 240.133 135.532 240.133 134.839C240.133 133.892 239.894 133.149 239.415 132.612C238.937 132.065 238.253 131.792 237.364 131.792C236.407 131.792 235.65 132.124 235.094 132.788C234.547 133.442 234.273 134.307 234.273 135.381H230.025C230.025 134.082 230.333 132.896 230.948 131.821C231.573 130.747 232.452 129.907 233.585 129.302C234.718 128.687 236.002 128.379 237.438 128.379C239.635 128.379 241.339 128.906 242.55 129.961C243.771 131.016 244.381 132.505 244.381 134.429C244.381 135.483 244.107 136.558 243.561 137.651C243.014 138.745 242.076 140.02 240.748 141.475L235.899 146.587H245.069V150Z" fill="#EBEBEB" fill-opacity="0.6"/>
<path d="M260.201 141.973H262.618V145.386H260.201V150H255.968V145.386H247.223L247.032 142.72L255.924 128.672H260.201V141.973ZM251.251 141.973H255.968V134.443L255.689 134.927L251.251 141.973Z" fill="#EBEBEB" fill-opacity="0.6"/>
<path d="M269.21 135.879C270.333 134.531 271.744 133.857 273.443 133.857C276.881 133.857 278.624 135.854 278.673 139.849V150H274.439V139.966C274.439 139.058 274.244 138.389 273.854 137.959C273.463 137.52 272.813 137.3 271.905 137.3C270.665 137.3 269.767 137.778 269.21 138.735V150H264.977V127.5H269.21V135.879Z" fill="#EBEBEB" fill-opacity="0.6"/>
</svg>
