<svg width="433" height="446" viewBox="0 0 433 446" fill="none" xmlns="http://www.w3.org/2000/svg">
<g opacity="0.95" clip-path="url(#clip0_119_12)">
<path opacity="0.5" d="M19.3512 304.24L123.576 243.883C129.238 240.603 139.135 240.999 145.683 244.768L364.421 370.659C370.969 374.428 371.688 380.141 366.026 383.42L261.801 443.778C256.14 447.058 246.243 446.661 239.694 442.893L20.9567 317.001C14.4094 313.233 13.6908 307.52 19.3512 304.24Z" fill="#EBEBEB"/>
<path d="M264.833 421.424L373.301 358.606C376.865 356.542 378.525 353.761 378.407 350.865L378.431 350.873L378.387 335.133L372.352 342.2C371.961 341.941 371.567 341.684 371.139 341.438L149.252 213.733C140.443 208.663 127.127 208.129 119.51 212.541L12.5667 274.475C10.4054 272.103 5.86115 267.1 5.86115 267.1L5.91109 282.496C5.75029 285.968 8.22219 289.666 13.196 292.528L235.091 420.23C243.901 425.3 257.217 425.834 264.833 421.424Z" fill="#2E3035"/>
<path d="M323.486 382.885L317.239 386.493C316.409 386.972 315.736 386.462 315.736 385.357C315.745 384.794 315.885 384.241 316.146 383.743C316.407 383.244 316.781 382.814 317.239 382.486L323.486 378.879C324.317 378.4 324.989 378.908 324.989 380.016C324.98 380.578 324.84 381.131 324.579 381.629C324.318 382.128 323.943 382.558 323.486 382.885V382.885Z" fill="#EBEBEB"/>
<path d="M149.252 213.733C140.444 208.663 127.127 208.129 119.51 212.541L12.5668 274.474C10.403 272.104 5.86365 267.1 5.86365 267.1L5.91359 282.496C5.75279 285.968 8.22468 289.665 13.1985 292.528L235.092 420.23C239.686 422.877 245.507 424.275 251.107 424.39L250.896 272.232L149.252 213.733Z" fill="#2E3035"/>
<path d="M10.9977 259.531L119.462 196.716C127.078 192.304 140.395 192.838 149.205 197.908L371.095 325.612C379.905 330.682 380.872 338.368 373.255 342.782L264.788 405.596C257.172 410.008 243.855 409.475 235.047 404.405L13.1565 276.7C4.34456 271.63 3.38077 263.943 10.9977 259.531Z" fill="#EBEBEB"/>
<path d="M264.871 407.276L373.338 344.462C377.265 342.186 378.893 339.039 378.356 335.83C378.164 338.437 376.493 340.906 373.255 342.782L264.788 405.596C257.172 410.008 243.855 409.475 235.047 404.405L13.158 276.7C8.89136 274.245 6.48288 271.176 5.97951 268.163C5.71933 271.687 8.17675 275.465 13.2409 278.379L235.13 406.085C243.938 411.155 257.252 411.688 264.871 407.276Z" fill="#2E3035"/>
<path d="M19.3512 262.007L123.576 201.649C129.238 198.37 139.135 198.766 145.683 202.535L364.421 328.426C370.969 332.194 371.688 337.907 366.026 341.187L261.801 401.545C256.14 404.824 246.243 404.428 239.694 400.659L20.9567 274.768C14.4094 271 13.6908 265.286 19.3512 262.007Z" fill="#173D7A"/>
<path d="M235.547 370.196L309.093 327.73L304.399 325.02L230.853 367.484L235.547 370.196Z" fill="#2E3035"/>
<path d="M286.719 357.816L323.959 336.315L319.265 333.605L282.025 355.106L286.719 357.816Z" fill="#2E3035"/>
<path d="M268.647 368.251L280.725 361.277L276.031 358.567L263.953 365.54L268.647 368.251Z" fill="#FFCE1F"/>
<path d="M250.413 378.779L262.491 371.805L257.797 369.095L245.719 376.069L250.413 378.779Z" fill="#EBEBEB"/>
<path d="M286.303 349.474L316.526 332.023L311.832 329.313L281.609 346.763L286.303 349.474Z" fill="#EBEBEB"/>
<path d="M249.41 370.775L279.633 353.324L274.939 350.614L244.715 368.064L249.41 370.775Z" fill="#2E3035"/>
<path d="M271.786 333.473C272.634 333.903 273.572 334.128 274.524 334.128C275.475 334.128 276.413 333.903 277.262 333.473C278.775 332.599 278.775 331.183 277.262 330.31C276.413 329.88 275.475 329.655 274.524 329.655C273.572 329.655 272.634 329.88 271.786 330.31C270.272 331.183 270.272 332.599 271.786 333.473Z" fill="#FFCE1F"/>
<path d="M263.602 338.198C264.45 338.628 265.388 338.852 266.34 338.852C267.291 338.852 268.229 338.628 269.078 338.198C270.591 337.325 270.591 335.909 269.078 335.035C268.229 334.605 267.291 334.38 266.34 334.38C265.388 334.38 264.45 334.605 263.602 335.035C262.089 335.909 262.089 337.325 263.602 338.198Z" fill="#EBEBEB"/>
<path d="M255.419 342.923C256.267 343.354 257.205 343.578 258.157 343.578C259.109 343.578 260.047 343.354 260.896 342.923C262.408 342.049 262.408 340.634 260.896 339.76C260.047 339.33 259.109 339.105 258.157 339.105C257.205 339.105 256.267 339.33 255.419 339.76C253.905 340.633 253.905 342.049 255.419 342.923Z" fill="#2E3035"/>
<path d="M247.233 347.647C248.082 348.078 249.02 348.302 249.971 348.302C250.923 348.302 251.861 348.078 252.709 347.647C254.222 346.774 254.222 345.359 252.709 344.486C251.861 344.055 250.922 343.831 249.971 343.831C249.019 343.831 248.081 344.055 247.232 344.486C245.723 345.359 245.722 346.774 247.233 347.647Z" fill="#FFCE1F"/>
<path d="M239.052 352.373C239.9 352.803 240.838 353.028 241.79 353.028C242.742 353.028 243.68 352.803 244.529 352.373C246.04 351.499 246.04 350.083 244.529 349.21C243.68 348.779 242.742 348.555 241.79 348.555C240.838 348.555 239.9 348.779 239.052 349.21C237.538 350.083 237.538 351.499 239.052 352.373Z" fill="#EBEBEB"/>
<path d="M74.5631 262.472L86.9476 255.322L82.1346 252.544L69.7501 259.694L74.5631 262.472Z" fill="#FFCE1F"/>
<path d="M57.3202 272.428L69.7047 265.278L64.8917 262.499L52.5072 269.649L57.3202 272.428Z" fill="#2E3035"/>
<path d="M129.874 230.237L142.258 223.087L137.445 220.309L125.061 227.459L129.874 230.237Z" fill="#2E3035"/>
<path d="M77.3236 269.678L94.5665 259.723L89.7535 256.943L72.5106 266.899L77.3236 269.678Z" fill="#2E3035"/>
<path d="M64.9406 276.828L72.5066 272.459L67.6936 269.68L60.1276 274.049L64.9406 276.828Z" fill="#EBEBEB"/>
<path opacity="0.5" d="M20.9582 402.658L41.917 390.557L20.9587 378.453L0 390.554L20.9582 402.658Z" fill="#EBEBEB"/>
<path d="M0 375.193L20.9582 387.294V363.093L0 350.992V375.193Z" fill="#EBEBEB"/>
<path d="M20.9582 363.093L41.9165 350.992L20.9588 338.892L0.00100708 350.993L20.9582 363.093Z" fill="#173D7A"/>
<path d="M20.9583 387.294L41.9165 375.193V350.992L20.9583 363.093V387.294Z" fill="#FFCE1F"/>
<path d="M28.5058 374.22L34.368 370.836V364.067L28.5058 367.451V374.22Z" fill="#EBEBEB"/>
<path opacity="0.5" d="M383.199 306.447L405.019 293.849L383.199 281.251L361.38 293.849L383.199 306.447Z" fill="#EBEBEB"/>
<path d="M361.38 277.854L383.199 290.452V265.257L361.38 252.659V277.854Z" fill="#173D7A"/>
<path d="M383.199 265.257L405.019 252.659L383.2 240.062L361.381 252.66L383.199 265.257Z" fill="#EBEBEB"/>
<path d="M383.199 290.452L405.018 277.854V252.659L383.199 265.257V290.452Z" fill="#FFCE1F"/>
<path d="M391.057 276.841L397.159 273.318V266.271L391.057 269.794V276.841Z" fill="#EBEBEB"/>
<path d="M207.573 295.164C207.573 310.924 190.884 323.7 170.297 323.7C149.711 323.7 133.022 310.924 133.022 295.164C133.022 279.403 149.711 266.627 170.297 266.627C190.884 266.627 207.573 279.403 207.573 295.164Z" fill="#092E63"/>
<path d="M247.041 295.164C247.041 310.924 230.352 323.7 209.765 323.7C189.179 323.7 172.49 310.924 172.49 295.164C172.49 279.403 189.179 266.627 209.765 266.627C230.352 266.627 247.041 279.403 247.041 295.164Z" fill="#092E63"/>
<g clip-path="url(#clip1_119_12)">
<path d="M272.873 111.8C284.99 126.192 290.187 144.911 287.193 163.177C286.063 169.963 283.945 176.749 280.922 183.309L240.845 269.974C238.896 274.215 234.941 276.732 230.31 276.732C225.848 276.732 222.034 274.413 220.001 270.483L207.461 223.462C205.314 215.346 198.253 209.917 189.921 209.917C181.617 209.917 174.557 215.346 172.41 223.462L159.87 270.483C157.836 274.413 154.023 276.732 149.561 276.732C144.929 276.732 140.975 274.216 139.026 269.974L98.9482 183.309C94.7395 174.233 92.4241 164.676 92.0846 154.921C91.4349 137.701 97.7618 121.244 109.85 108.606C122.362 95.5143 139.874 88.0213 157.893 88.0213C167.468 88.0213 176.618 91.4991 184.47 98.0305C193.622 106.202 218.532 128.088 226.752 132.074C227.769 132.583 228.842 132.81 229.915 132.81C232.655 132.81 235.252 131.254 236.524 128.596C238.275 124.92 236.75 120.509 233.078 118.728C228.925 116.72 214.493 104.731 201.727 93.591C207.998 89.9437 214.889 88.0204 222.035 88.0204C241.664 88.0204 260.192 96.7011 272.873 111.8ZM156.819 132.979C159.672 130.095 159.672 125.43 156.819 122.546C153.938 119.633 149.305 119.633 146.425 122.546L139.703 129.332L132.953 122.545C130.072 119.632 125.44 119.632 122.587 122.545C119.707 125.429 119.707 130.094 122.587 132.978L129.31 139.793L122.587 146.608C119.707 149.492 119.707 154.157 122.587 157.041C124 158.484 125.892 159.218 127.756 159.218C129.648 159.218 131.512 158.483 132.953 157.041L139.704 150.255L146.426 157.041C147.866 158.484 149.758 159.218 151.623 159.218C153.487 159.218 155.379 158.483 156.82 157.041C159.673 154.157 159.673 149.492 156.82 146.608L150.069 139.793L156.819 132.979Z" fill="#EBEBEB"/>
<path d="M284.086 102.243C298.971 119.972 305.382 143.045 301.654 165.609C300.298 173.724 297.813 181.782 294.226 189.558L254.148 276.223C249.77 285.667 240.647 291.52 230.31 291.52C219.972 291.52 210.821 285.667 206.472 276.223C206.274 275.827 206.133 275.431 206.02 275.007L193.311 227.306C192.69 225.044 190.938 224.705 189.921 224.705C188.933 224.705 187.181 225.044 186.56 227.306L173.851 275.007C173.738 275.431 173.596 275.827 173.399 276.223C169.05 285.667 159.898 291.52 149.561 291.52C139.223 291.52 130.101 285.667 125.723 276.223L85.6439 189.558C80.6162 178.672 77.8484 167.192 77.4246 155.458C76.6334 134.195 84.4011 113.921 99.2852 98.3417C114.537 82.3933 135.918 73.2327 157.892 73.2327C169.36 73.2327 180.318 76.7958 189.921 83.6097C199.552 76.7949 210.511 73.2327 221.978 73.2327C245.985 73.2327 268.58 83.8079 284.086 102.243ZM287.193 163.177C290.187 144.911 284.99 126.192 272.873 111.8C260.192 96.7011 241.664 88.0204 222.034 88.0204C214.888 88.0204 207.997 89.9428 201.726 93.591C214.493 104.731 228.925 116.72 233.077 118.728C236.749 120.509 238.274 124.92 236.523 128.596C235.252 131.254 232.654 132.81 229.914 132.81C228.84 132.81 227.767 132.583 226.751 132.074C218.531 128.088 193.621 106.202 184.47 98.0305C176.618 91.4991 167.466 88.0213 157.892 88.0213C139.873 88.0213 122.362 95.5143 109.849 108.606C97.7601 121.244 91.4341 137.701 92.0837 154.921C92.4224 164.676 94.7387 174.233 98.9473 183.309L139.025 269.974C140.974 274.215 144.928 276.732 149.56 276.732C154.022 276.732 157.836 274.413 159.869 270.483L172.409 223.462C174.556 215.346 181.617 209.917 189.92 209.917C198.252 209.917 205.313 215.346 207.46 223.462L220 270.483C222.034 274.413 225.847 276.732 230.309 276.732C234.941 276.732 238.895 274.216 240.844 269.974L280.922 183.309C283.945 176.749 286.063 169.963 287.193 163.177Z" fill="#2E3035"/>
<path d="M156.819 122.545C159.672 125.429 159.672 130.094 156.819 132.978L150.068 139.793L156.819 146.608C159.672 149.492 159.672 154.157 156.819 157.041C155.378 158.484 153.486 159.218 151.622 159.218C149.758 159.218 147.866 158.483 146.425 157.041L139.703 150.255L132.953 157.041C131.512 158.484 129.648 159.218 127.756 159.218C125.892 159.218 124 158.483 122.587 157.041C119.707 154.157 119.707 149.492 122.587 146.608L129.31 139.793L122.587 132.978C119.707 130.094 119.707 125.429 122.587 122.545C125.44 119.632 130.072 119.632 132.953 122.545L139.704 129.331L146.426 122.545C149.305 119.633 153.938 119.633 156.819 122.545Z" fill="#FFCE1F"/>
<path d="M206.231 116.845C197.743 109.79 189.095 102.159 184.47 98.0305C176.618 91.4991 167.466 88.0213 157.892 88.0213C139.873 88.0213 122.362 95.5143 109.849 108.606C97.7601 121.244 91.4341 137.701 92.0837 154.921C92.4224 164.676 94.7387 174.233 98.9473 183.309L139.025 269.974C140.974 274.215 144.928 276.732 149.56 276.732C154.022 276.732 157.836 274.413 159.869 270.483L166.891 244.15C154.963 261.313 144.349 248.428 144.349 248.428C128.755 211.288 129.464 177.564 132.103 157.739C130.812 158.704 129.298 159.218 127.756 159.218C125.892 159.218 124 158.483 122.587 157.041C119.707 154.157 119.707 149.492 122.587 146.608L129.31 139.793L122.587 132.978C119.707 130.094 119.707 125.429 122.587 122.545C125.44 119.632 130.072 119.632 132.953 122.545L139.704 129.331L139.74 129.294C152.418 107.774 186.167 112.007 206.231 116.845Z" fill="#A8A8A8"/>
<path d="M211.259 237.694L220.004 270.48C222.038 274.41 225.85 276.729 230.312 276.729C234.944 276.729 238.898 274.212 240.847 269.97L241.254 269.094C230.428 271.812 218.416 252.059 211.259 237.694Z" fill="#A8A8A8"/>
<path d="M176.38 92.6581L176.31 93.2432L181.959 96.102C180.157 94.7926 178.293 93.6528 176.38 92.6581Z" fill="#A8A8A8"/>
<path d="M272.873 111.8C260.192 96.7011 241.664 88.0204 222.034 88.0204C214.888 88.0204 207.997 89.9428 201.726 93.591C212.499 102.99 224.428 112.969 230.397 117.074C244.651 119.005 273.952 127.361 287.193 163.18C290.187 144.911 284.99 126.193 272.873 111.8Z" fill="#A8A8A8"/>
</g>
</g>
<g opacity="0.95">
<path d="M234.768 24.4473H242.427V30.9385H234.768V39.7207H227.692V30.9385H220.011V24.4473H227.692V15.9121H234.768V24.4473Z" fill="#FFCE1F"/>
<path d="M260.096 33.9824V43H254.822V17.4062H264.807C266.729 17.4062 268.416 17.7578 269.869 18.4609C271.334 19.1641 272.459 20.166 273.244 21.4668C274.029 22.7559 274.422 24.2266 274.422 25.8789C274.422 28.3867 273.561 30.3672 271.838 31.8203C270.127 33.2617 267.754 33.9824 264.719 33.9824H260.096ZM260.096 29.7109H264.807C266.201 29.7109 267.262 29.3828 267.988 28.7266C268.727 28.0703 269.096 27.1328 269.096 25.9141C269.096 24.6602 268.727 23.6465 267.988 22.873C267.25 22.0996 266.23 21.7012 264.93 21.6777H260.096V29.7109ZM288.537 43C288.303 42.543 288.133 41.9746 288.027 41.2949C286.797 42.666 285.197 43.3516 283.229 43.3516C281.365 43.3516 279.818 42.8125 278.588 41.7344C277.369 40.6562 276.76 39.2969 276.76 37.6562C276.76 35.6406 277.504 34.0938 278.992 33.0156C280.492 31.9375 282.654 31.3926 285.479 31.3809H287.816V30.291C287.816 29.4121 287.588 28.709 287.131 28.1816C286.686 27.6543 285.977 27.3906 285.004 27.3906C284.148 27.3906 283.475 27.5957 282.982 28.0059C282.502 28.416 282.262 28.9785 282.262 29.6934H277.182C277.182 28.5918 277.521 27.5723 278.201 26.6348C278.881 25.6973 279.842 24.9648 281.084 24.4375C282.326 23.8984 283.721 23.6289 285.268 23.6289C287.611 23.6289 289.469 24.2207 290.84 25.4043C292.223 26.5762 292.914 28.2285 292.914 30.3613V38.6055C292.926 40.4102 293.178 41.7754 293.67 42.7012V43H288.537ZM284.336 39.4668C285.086 39.4668 285.777 39.3027 286.41 38.9746C287.043 38.6348 287.512 38.1836 287.816 37.6211V34.3516H285.918C283.375 34.3516 282.021 35.2305 281.857 36.9883L281.84 37.2871C281.84 37.9199 282.062 38.4414 282.508 38.8516C282.953 39.2617 283.562 39.4668 284.336 39.4668ZM304.727 39.2559C305.664 39.2559 306.426 38.998 307.012 38.4824C307.598 37.9668 307.902 37.2812 307.926 36.4258H312.689C312.678 37.7148 312.326 38.8984 311.635 39.9766C310.943 41.043 309.994 41.875 308.787 42.4727C307.592 43.0586 306.268 43.3516 304.814 43.3516C302.096 43.3516 299.951 42.4902 298.381 40.7676C296.811 39.0332 296.025 36.6426 296.025 33.5957V33.2617C296.025 30.332 296.805 27.9941 298.363 26.248C299.922 24.502 302.061 23.6289 304.779 23.6289C307.158 23.6289 309.062 24.3086 310.492 25.668C311.934 27.0156 312.666 28.8145 312.689 31.0645H307.926C307.902 30.0801 307.598 29.2832 307.012 28.6738C306.426 28.0527 305.652 27.7422 304.691 27.7422C303.508 27.7422 302.611 28.1758 302.002 29.043C301.404 29.8984 301.105 31.293 301.105 33.2266V33.7539C301.105 35.7109 301.404 37.1172 302.002 37.9727C302.6 38.8281 303.508 39.2559 304.727 39.2559ZM320.951 43H315.854V23.9805H320.951V43ZM315.555 19.0586C315.555 18.2969 315.807 17.6699 316.311 17.1777C316.826 16.6855 317.523 16.4395 318.402 16.4395C319.27 16.4395 319.961 16.6855 320.477 17.1777C320.992 17.6699 321.25 18.2969 321.25 19.0586C321.25 19.832 320.986 20.4648 320.459 20.957C319.943 21.4492 319.258 21.6953 318.402 21.6953C317.547 21.6953 316.855 21.4492 316.328 20.957C315.812 20.4648 315.555 19.832 315.555 19.0586ZM333.906 43.3516C331.117 43.3516 328.844 42.4961 327.086 40.7852C325.34 39.0742 324.467 36.7949 324.467 33.9473V33.4551C324.467 31.5449 324.836 29.8398 325.574 28.3398C326.312 26.8281 327.355 25.668 328.703 24.8594C330.062 24.0391 331.609 23.6289 333.344 23.6289C335.945 23.6289 337.99 24.4492 339.479 26.0898C340.979 27.7305 341.729 30.0566 341.729 33.0684V35.1426H329.617C329.781 36.3848 330.273 37.3809 331.094 38.1309C331.926 38.8809 332.975 39.2559 334.24 39.2559C336.197 39.2559 337.727 38.5469 338.828 37.1289L341.324 39.9238C340.562 41.002 339.531 41.8457 338.23 42.4551C336.93 43.0527 335.488 43.3516 333.906 43.3516ZM333.326 27.7422C332.318 27.7422 331.498 28.082 330.865 28.7617C330.244 29.4414 329.846 30.4141 329.67 31.6797H336.736V31.2754C336.713 30.1504 336.408 29.2832 335.822 28.6738C335.236 28.0527 334.404 27.7422 333.326 27.7422ZM349.305 23.9805L349.463 26.1777C350.822 24.4785 352.645 23.6289 354.93 23.6289C356.945 23.6289 358.445 24.2207 359.43 25.4043C360.414 26.5879 360.918 28.3574 360.941 30.7129V43H355.861V30.8359C355.861 29.7578 355.627 28.9785 355.158 28.498C354.689 28.0059 353.91 27.7598 352.82 27.7598C351.391 27.7598 350.318 28.3691 349.604 29.5879V43H344.523V23.9805H349.305ZM370.891 19.3047V23.9805H374.143V27.707H370.891V37.1992C370.891 37.9023 371.025 38.4062 371.295 38.7109C371.564 39.0156 372.08 39.168 372.842 39.168C373.404 39.168 373.902 39.127 374.336 39.0449V42.8945C373.34 43.1992 372.314 43.3516 371.26 43.3516C367.697 43.3516 365.881 41.5527 365.811 37.9551V27.707H363.033V23.9805H365.811V19.3047H370.891ZM385.727 43.3516C382.938 43.3516 380.664 42.4961 378.906 40.7852C377.16 39.0742 376.287 36.7949 376.287 33.9473V33.4551C376.287 31.5449 376.656 29.8398 377.395 28.3398C378.133 26.8281 379.176 25.668 380.523 24.8594C381.883 24.0391 383.43 23.6289 385.164 23.6289C387.766 23.6289 389.811 24.4492 391.299 26.0898C392.799 27.7305 393.549 30.0566 393.549 33.0684V35.1426H381.438C381.602 36.3848 382.094 37.3809 382.914 38.1309C383.746 38.8809 384.795 39.2559 386.061 39.2559C388.018 39.2559 389.547 38.5469 390.648 37.1289L393.145 39.9238C392.383 41.002 391.352 41.8457 390.051 42.4551C388.75 43.0527 387.309 43.3516 385.727 43.3516ZM385.146 27.7422C384.139 27.7422 383.318 28.082 382.686 28.7617C382.064 29.4414 381.666 30.4141 381.49 31.6797H388.557V31.2754C388.533 30.1504 388.229 29.2832 387.643 28.6738C387.057 28.0527 386.225 27.7422 385.146 27.7422ZM406.75 37.7441C406.75 37.123 406.439 36.6367 405.818 36.2852C405.209 35.9219 404.225 35.5996 402.865 35.3184C398.342 34.3691 396.08 32.4473 396.08 29.5527C396.08 27.8652 396.777 26.459 398.172 25.334C399.578 24.1973 401.412 23.6289 403.674 23.6289C406.088 23.6289 408.016 24.1973 409.457 25.334C410.91 26.4707 411.637 27.9473 411.637 29.7637H406.557C406.557 29.0371 406.322 28.4395 405.854 27.9707C405.385 27.4902 404.652 27.25 403.656 27.25C402.801 27.25 402.139 27.4434 401.67 27.8301C401.201 28.2168 400.967 28.709 400.967 29.3066C400.967 29.8691 401.23 30.3262 401.758 30.6777C402.297 31.0176 403.199 31.3164 404.465 31.5742C405.73 31.8203 406.797 32.1016 407.664 32.418C410.348 33.4023 411.689 35.1074 411.689 37.5332C411.689 39.2676 410.945 40.6738 409.457 41.752C407.969 42.8184 406.047 43.3516 403.691 43.3516C402.098 43.3516 400.68 43.0703 399.438 42.5078C398.207 41.9336 397.24 41.1543 396.537 40.1699C395.834 39.1738 395.482 38.1016 395.482 36.9531H400.299C400.346 37.8555 400.68 38.5469 401.301 39.0273C401.922 39.5078 402.754 39.748 403.797 39.748C404.77 39.748 405.502 39.5664 405.994 39.2031C406.498 38.8281 406.75 38.3418 406.75 37.7441Z" fill="#EBEBEB"/>
</g>
<defs>
<clipPath id="clip0_119_12">
<rect width="433" height="390" fill="white" transform="translate(0 56)"/>
</clipPath>
<clipPath id="clip1_119_12">
<rect width="225.323" height="225.575" fill="white" transform="translate(77.3699 69.5889)"/>
</clipPath>
</defs>
</svg>
