<svg width="63" height="63" viewBox="0 0 63 63" fill="none" xmlns="http://www.w3.org/2000/svg">
<path d="M31.4823 0.25C25.3016 0.25 19.2597 2.08278 14.1207 5.51657C8.98165 8.95037 4.97626 13.831 2.61102 19.5411C0.245779 25.2513 -0.373075 31.5347 0.832713 37.5966C2.0385 43.6585 5.01478 49.2267 9.38517 53.5971C13.7556 57.9675 19.3238 60.9438 25.3857 62.1495C31.4476 63.3553 37.7309 62.7365 43.4411 60.3712C49.1513 58.006 54.0319 54.0006 57.4657 48.8616C60.8995 43.7225 62.7323 37.6807 62.7323 31.5C62.7326 27.3961 61.9245 23.3323 60.3542 19.5407C58.7838 15.7492 56.482 12.3041 53.5801 9.40215C50.6782 6.50025 47.2331 4.19841 43.4415 2.62807C39.6499 1.05773 35.5862 0.249659 31.4823 0.25ZM41.4182 47.6015C41.3013 47.8931 41.1233 48.1564 40.8962 48.3737C40.6692 48.5909 40.3983 48.7571 40.1018 48.8611C39.8053 48.9652 39.49 49.0046 39.177 48.9768C38.864 48.949 38.5605 48.8546 38.287 48.6999L29.8036 42.1081L24.3589 47.1313C24.2325 47.2246 24.0848 47.2847 23.9291 47.3059C23.7735 47.3272 23.615 47.309 23.4683 47.2529L24.512 37.914L24.5454 37.9405L24.5668 37.7561C24.5668 37.7561 39.8324 23.8577 40.4543 23.2655C41.0839 22.6749 40.8761 22.5468 40.8761 22.5468C40.912 21.8263 39.7464 22.5468 39.7464 22.5468L19.5198 35.5594L11.0963 32.6906C11.0963 32.6906 9.8026 32.2266 9.68072 31.2063C9.5526 30.1938 11.1385 29.6438 11.1385 29.6438L44.6291 16.339C44.6291 16.339 47.3823 15.1124 47.3823 17.1438L41.4182 47.6015Z" fill="#2E3035"/>
</svg>
