<svg width="58" height="58" viewBox="0 0 58 58" fill="none" xmlns="http://www.w3.org/2000/svg">
<path d="M28.75 0C13 0 0 13 0 28.75C0 34.75 1.75 40.25 5 45L1.75 54.75C1.5 55.25 1.75 55.75 2 56C2.5 56.25 3 56.5 3.5 56.25L13.5 53C18 56 23.5 57.5 28.75 57.5C44.5 57.5 57.5 44.5 57.5 28.75C57.5 13 44.5 0 28.75 0ZM46 40.5C45.25 42.75 42.25 44.75 39.75 45.25C39.25 45.25 38.75 45.5 38 45.5C36 45.5 33.5 44.75 29.5 43.25C24.5 41.25 19.5 36.75 15.5 31L15.25 30.75C13.75 28.75 11.5 25.25 11.5 21.5C11.5 17.25 13.75 15 14.5 14C15.5 13 16.75 12.5 18.25 12.5C18.5 12.5 18.75 12.5 19 12.5H19.25C20.5 12.5 21.25 13 22 14.5L22.5 15.5C23.25 17.25 24.25 20 24.5 20.5C25 21.5 25 22.25 24.5 23C24.25 23.5 24 24 23.5 24.5C23.25 24.75 23 25 23 25.25C22.75 25.5 22.5 25.75 22.25 26C22.25 26.25 22.25 26.25 22.25 26.25C23 27.5 24.5 29.75 26.5 31.5C29.25 34 31.25 34.75 32.25 35.25H32.5C32.75 35.25 33 35.5 33 35.25C33.5 34.75 34 33.75 34.75 33L35 32.75C35.75 31.75 36.75 31.5 37.25 31.5C37.5 31.5 38 31.5 38.25 31.75C38.5 31.75 39 32 43.75 34.5L44.25 34.75C45 35 45.5 35.25 45.75 36C46.75 36.5 46.5 38.75 46 40.5Z" fill="#2E3035"/>
</svg>
